HIERARCHY
ROOT Hips
{
	OFFSET 0.000000 0.000000 0.000000
	CHANNELS 6 Xposition Yposition Zposition Zrotation Yrotation Xrotation 
	JOINT LowerBack
	{
		OFFSET 0.000000 0.000000 0.000000
		CHANNELS 3 Zrotation Yrotation Xrotation
		JOINT Spine
		{
			OFFSET 0.028270 2.035590 -0.193380
			CHANNELS 3 Zrotation Yrotation Xrotation
			JOINT Spine1
			{
				OFFSET 0.056720 2.048850 -0.042750
				CHANNELS 3 Zrotation Yrotation Xrotation
				JOINT Neck
				{
					OFFSET 0.000000 0.000000 0.000000
					CHANNELS 3 Zrotation Yrotation Xrotation
					JOINT Neck1
					{
						OFFSET -0.054170 1.746240 0.172020
						CHANNELS 3 Zrotation Yrotation Xrotation
						JOINT Head
						{
							OFFSET 0.104070 1.761360 -0.123970
							CHANNELS 3 Zrotation Yrotation Xrotation
							End Site
							{
								OFFSET 0.000000 0.000000 0.000000
							}
						}
					}
				}
				JOINT LeftShoulder
				{
					OFFSET 0.000000 0.000000 0.000000
					CHANNELS 3 Zrotation Yrotation Xrotation
					JOINT LeftArm
					{
						OFFSET 3.362410 1.200890 -0.311210
						CHANNELS 3 Zrotation Yrotation Xrotation
						JOINT LeftForeArm
						{
							OFFSET 4.983000 -0.000000 -0.000000
							CHANNELS 3 Zrotation Yrotation Xrotation
							JOINT LeftHand
							{
								OFFSET 3.483560 -0.000000 -0.000000
								CHANNELS 3 Zrotation Yrotation Xrotation
								JOINT LeftFingerBase
								{
									OFFSET 0.000000 0.000000 0.000000
									CHANNELS 3 Zrotation Yrotation Xrotation
									JOINT LeftHandIndex1
									{
										OFFSET 0.715260 -0.000000 -0.000000
										CHANNELS 3 Zrotation Yrotation Xrotation
										End Site
										{
											OFFSET 0.000000 0.000000 0.000000
										}
									}
								}
								JOINT LThumb
								{
									OFFSET 0.000000 0.000000 0.000000
									CHANNELS 3 Zrotation Yrotation Xrotation
									End Site
									{
										OFFSET 0.000000 0.000000 0.000000
									}
								}
							}
						}
					}
				}
				JOINT RightShoulder
				{
					OFFSET 0.000000 0.000000 0.000000
					CHANNELS 3 Zrotation Yrotation Xrotation
					JOINT RightArm
					{
						OFFSET -3.136600 1.374050 -0.404650
						CHANNELS 3 Zrotation Yrotation Xrotation
						JOINT RightForeArm
						{
							OFFSET -5.241900 -0.000000 -0.000000
							CHANNELS 3 Zrotation Yrotation Xrotation
							JOINT RightHand
							{
								OFFSET -3.444170 -0.000000 -0.000000
								CHANNELS 3 Zrotation Yrotation Xrotation
								JOINT RightFingerBase
								{
									OFFSET 0.000000 0.000000 0.000000
									CHANNELS 3 Zrotation Yrotation Xrotation
									JOINT RightHandIndex1
									{
										OFFSET -0.622530 -0.000000 -0.000000
										CHANNELS 3 Zrotation Yrotation Xrotation
										End Site
										{
											OFFSET 0.000000 0.000000 0.000000
										}
									}
								}
								JOINT RThumb
								{
									OFFSET 0.000000 0.000000 0.000000
									CHANNELS 3 Zrotation Yrotation Xrotation
									End Site
									{
										OFFSET 0.000000 0.000000 0.000000
									}
								}
							}
						}
					}
				}
			}
		}
	}
}
}
MOTION
Frames: 17
Frame Time: 0.008333
-1.550251 17.400654 -0.848670 155.634429 -84.463991 -145.352980 -1.861855 -1.675572 -5.249464 -1.014732 -1.730108 -3.651636 -6.183305 -1.838457 1.215817 8.914064 -8.999901 -7.306636 -3.239394 -0.257696 0.119788 0.000000 0.000000 0.000000 -1.896669 8.819082 1.017177 -70.532108 -0.134709 7.229115 -3.168949 -26.169877 0.005257 6.455440 -4.252151 -0.244813 -0.101979 0.032687 -0.000000 0.000000 0.000000 0.000000 0.000000 0.000000 0.000000 13.716509 -5.953576 0.297836 73.718870 9.254875 -5.190442 3.365108 21.253229 0.015121 -0.905114 9.046937 -0.079752 0.099333 -0.126704 -0.000000 0.000000 0.000000 0.000000 0.000000 0.000000 0.000000 
-1.510112 17.402756 -0.873569 154.096342 -84.164978 -144.098035 -2.080636 -1.652606 -4.949910 -1.057398 -1.679136 -3.599596 -6.158372 -1.786327 1.186148 8.816083 -8.907029 -7.282650 -3.232618 -0.256836 0.121883 0.000000 0.000000 0.000000 -2.021169 8.873666 1.039442 -70.444037 -0.117956 7.023537 -3.178946 -26.207868 0.005273 6.418288 -4.240682 -0.242817 -0.101632 0.032251 -0.000000 0.000000 0.000000 0.000000 0.000000 0.000000 0.000000 13.590565 -5.825812 0.299376 73.724547 9.466566 -5.008383 3.350921 21.388927 0.015001 -0.844104 8.975259 -0.074155 0.098623 -0.127672 -0.000000 0.000000 0.000000 0.000000 0.000000 0.000000 0.000000 
-1.467068 17.404055 -0.896931 152.517825 -83.889863 -142.825747 -2.299062 -1.626582 -4.602338 -1.101433 -1.624553 -3.540494 -6.136140 -1.730079 1.147557 8.724147 -8.812943 -7.262633 -3.229063 -0.256093 0.122185 0.000000 0.000000 0.000000 -2.149964 8.891740 1.067526 -70.378028 -0.134311 6.813256 -3.188680 -26.210087 0.005255 6.369680 -4.229143 -0.240323 -0.101038 0.031983 -0.000000 0.000000 0.000000 0.000000 0.000000 0.000000 0.000000 13.483183 -5.694152 0.308573 73.702249 9.685991 -4.816916 3.333237 21.559077 0.014859 -0.801049 8.919485 -0.070259 0.097859 -0.128938 -0.000000 0.000000 0.000000 0.000000 0.000000 0.000000 0.000000 
-1.421243 17.404627 -0.918716 150.877020 -83.648952 -141.516897 -2.516540 -1.599499 -4.202664 -1.146639 -1.568539 -3.473390 -6.117351 -1.671839 1.100394 8.643560 -8.716830 -7.245723 -3.228948 -0.255486 0.120832 0.000000 0.000000 0.000000 -2.276447 8.871761 1.101559 -70.336736 -0.190219 6.606215 -3.198133 -26.165165 0.005201 6.315288 -4.218715 -0.237630 -0.100227 0.031902 -0.000000 0.000000 0.000000 0.000000 0.000000 0.000000 0.000000 13.400295 -5.559907 0.325405 73.646031 9.913629 -4.612299 3.311678 21.757545 0.014695 -0.783521 8.886730 -0.068561 0.097069 -0.130489 -0.000000 0.000000 0.000000 0.000000 0.000000 0.000000 0.000000 
-1.372795 17.404658 -0.938916 149.155539 -83.449763 -140.157944 -2.732020 -1.573357 -3.748577 -1.192641 -1.513347 -3.398238 -6.102572 -1.613894 1.042717 8.578142 -8.614054 -7.227777 -3.232567 -0.255086 0.118919 0.000000 0.000000 0.000000 -2.394496 8.801862 1.141707 -70.321723 -0.273072 6.399149 -3.206829 -26.073938 0.005110 6.258327 -4.208722 -0.234940 -0.099183 0.031986 -0.000000 0.000000 0.000000 0.000000 0.000000 0.000000 0.000000 13.344985 -5.420509 0.350387 73.553780 10.145199 -4.396805 3.286061 21.976110 0.014503 -0.796013 8.882213 -0.069464 0.096261 -0.132307 -0.000000 0.000000 0.000000 0.000000 0.000000 0.000000 0.000000 
-1.322089 17.404361 -0.957772 147.324265 -83.296022 -138.723065 -2.947540 -1.550430 -3.239896 -1.239624 -1.461275 -3.315111 -6.092101 -1.558587 0.973855 8.531296 -8.500428 -7.205132 -3.239831 -0.254933 0.117416 0.000000 0.000000 0.000000 -2.497509 8.676829 1.187847 -70.333072 -0.373423 6.194585 -3.214636 -25.935520 0.004985 6.201785 -4.198892 -0.232252 -0.097920 0.032207 -0.000000 0.000000 0.000000 0.000000 0.000000 0.000000 0.000000 13.318938 -5.273927 0.383225 73.426746 10.377229 -4.172876 3.256368 22.204414 0.014281 -0.841217 8.908878 -0.073268 0.095443 -0.134347 -0.000000 0.000000 0.000000 0.000000 0.000000 0.000000 0.000000 
-1.269787 17.403978 -0.975599 145.355992 -83.186533 -137.185655 -3.166877 -1.532799 -2.679767 -1.288121 -1.414345 -3.224591 -6.086017 -1.508009 0.893823 8.505500 -8.372160 -7.174337 -3.250462 -0.255053 0.117275 0.000000 0.000000 0.000000 -2.579571 8.494797 1.239546 -70.369188 -0.479263 5.996376 -3.221573 -25.751496 0.004832 6.147537 -4.188675 -0.229665 -0.096462 0.032513 -0.000000 0.000000 0.000000 0.000000 0.000000 0.000000 0.000000 13.322541 -5.118332 0.423217 73.268723 10.606025 -3.942007 3.222894 22.430261 0.014024 -0.919526 8.967099 -0.079872 0.094621 -0.136535 -0.000000 0.000000 0.000000 0.000000 0.000000 0.000000 0.000000 
-1.216342 17.403761 -0.992915 143.206893 -83.115079 -135.504647 -3.398270 -1.522786 -2.072813 -1.339597 -1.374499 -3.127121 -6.084242 -1.464146 0.804203 8.503652 -8.230290 -7.134102 -3.263982 -0.255434 0.118858 0.000000 0.000000 0.000000 -2.634518 8.260702 1.295796 -70.426978 -0.583514 5.813001 -3.228086 -25.521832 0.004659 6.095942 -4.177327 -0.227080 -0.094850 0.032851 -0.000000 0.000000 0.000000 0.000000 0.000000 0.000000 0.000000 13.357769 -4.956374 0.468897 73.086199 10.834014 -3.698452 3.185988 22.639484 0.013726 -1.030726 9.053778 -0.089578 0.093808 -0.138772 0.000000 0.000000 0.000000 0.000000 0.000000 0.000000 0.000000 
-1.162646 17.403907 -1.010253 140.868161 -83.071921 -133.666062 -3.648386 -1.521409 -1.429910 -1.395324 -1.342669 -3.024876 -6.086815 -1.428086 0.704844 8.526387 -8.069583 -7.080743 -3.280039 -0.256114 0.123283 0.000000 0.000000 0.000000 -2.657269 7.973593 1.355937 -70.502371 -0.666194 5.646253 -3.234486 -25.256071 0.004477 6.044275 -4.162532 -0.224396 -0.093108 0.033135 -0.000000 0.000000 0.000000 0.000000 0.000000 0.000000 0.000000 13.422704 -4.783365 0.519264 72.889286 11.052455 -3.451671 3.146230 22.824701 0.013386 -1.166164 9.161908 -0.101684 0.092956 -0.140959 0.000000 0.000000 0.000000 0.000000 0.000000 0.000000 0.000000 
-1.109435 17.404612 -1.028261 138.332315 -83.043409 -131.655767 -3.926960 -1.529390 -0.764423 -1.457253 -1.319335 -2.919851 -6.093746 -1.400414 0.598159 8.574993 -7.893046 -7.014604 -3.298147 -0.257073 0.130582 0.000000 0.000000 0.000000 -2.643597 7.641805 1.418519 -70.589911 -0.718437 5.504504 -3.241562 -24.959686 0.004294 5.989191 -4.142168 -0.221213 -0.091284 0.033286 -0.000000 0.000000 0.000000 0.000000 0.000000 0.000000 0.000000 13.518454 -4.602407 0.572653 72.688044 11.262146 -3.198408 3.104310 22.977292 0.013002 -1.318260 9.282403 -0.115490 0.092043 -0.142985 0.000000 0.000000 0.000000 0.000000 0.000000 0.000000 0.000000 
-1.057470 17.406005 -1.047489 135.627096 -83.014188 -129.488855 -4.242444 -1.546428 -0.093987 -1.527164 -1.304158 -2.814871 -6.105179 -1.380935 0.486639 8.649935 -7.704268 -6.936831 -3.317916 -0.258297 0.140629 0.000000 0.000000 0.000000 -2.590915 7.273696 1.482019 -70.683611 -0.729961 5.394441 -3.250151 -24.641594 0.004124 5.925242 -4.113018 -0.217329 -0.089425 0.033223 -0.000000 0.000000 0.000000 0.000000 0.000000 0.000000 0.000000 13.645727 -4.416382 0.627609 72.492814 11.462475 -2.938665 3.061085 23.092979 0.012583 -1.475456 9.404061 -0.130098 0.091026 -0.144748 0.000000 0.000000 0.000000 0.000000 0.000000 0.000000 0.000000 
-1.007575 17.408125 -1.068357 132.820937 -82.968469 -127.214329 -4.600352 -1.570938 0.559483 -1.606260 -1.295786 -2.713454 -6.121078 -1.368461 0.373441 8.750238 -7.508993 -6.850084 -3.338898 -0.259753 0.152955 0.000000 0.000000 0.000000 -2.499288 6.879833 1.544734 -70.777739 -0.693506 5.322855 -3.261078 -24.311305 0.003977 5.846080 -4.071757 -0.212247 -0.087579 0.032869 -0.000000 0.000000 0.000000 0.000000 0.000000 0.000000 0.000000 13.803951 -4.229550 0.682712 72.313280 11.654368 -2.670156 3.017523 23.172011 0.012139 -1.625681 9.515453 -0.144205 0.089875 -0.146175 0.000000 0.000000 0.000000 0.000000 0.000000 0.000000 0.000000 
-0.960159 17.410891 -1.091204 129.982366 -82.892353 -124.885792 -5.007523 -1.601468 1.177798 -1.696014 -1.292812 -2.618342 -6.141412 -1.361696 0.261766 8.874785 -7.315332 -6.758774 -3.360720 -0.261387 0.166553 0.000000 0.000000 0.000000 -2.368753 6.472158 1.605139 -70.867945 -0.608901 5.297454 -3.275153 -23.976821 0.003859 5.745657 -4.015025 -0.205663 -0.085795 0.032184 -0.000000 0.000000 0.000000 0.000000 0.000000 0.000000 0.000000 13.993471 -4.048089 0.736706 72.157918 11.841515 -2.391090 2.974315 23.218103 0.011684 -1.755980 9.605020 -0.156613 0.088547 -0.147225 0.000000 0.000000 0.000000 0.000000 0.000000 0.000000 0.000000 
-0.915750 17.414084 -1.116123 127.209345 -82.774853 -122.580081 -5.466119 -1.635736 1.742124 -1.796896 -1.293268 -2.532516 -6.165775 -1.358802 0.154672 9.020321 -7.130743 -6.667339 -3.382882 -0.263134 0.180441 0.000000 0.000000 0.000000 -2.202062 6.061500 1.661976 -70.951166 -0.476612 5.323670 -3.292923 -23.647114 0.003774 5.617830 -3.939748 -0.197278 -0.084116 0.031143 -0.000000 0.000000 0.000000 0.000000 0.000000 0.000000 0.000000 14.211197 -3.877437 0.788650 72.033723 12.025125 -2.102238 2.932185 23.240644 0.011231 -1.853784 9.663158 -0.165819 0.087011 -0.147896 0.000000 0.000000 0.000000 0.000000 0.000000 0.000000 0.000000 
-0.874536 17.417341 -1.142869 124.607665 -82.610021 -120.387657 -5.972668 -1.670989 2.236824 -1.908109 -1.294889 -2.458696 -6.193134 -1.357647 0.053698 9.180995 -6.963251 -6.579791 -3.404710 -0.264922 0.193774 0.000000 0.000000 0.000000 -2.005163 5.652529 1.714208 -71.026916 -0.294814 5.401316 -3.314179 -23.334429 0.003720 5.457692 -3.843631 -0.186992 -0.082548 0.029740 -0.000000 0.000000 0.000000 0.000000 0.000000 0.000000 0.000000 14.449975 -3.723185 0.838369 71.944968 12.206865 -1.801255 2.891836 23.250538 0.010800 -1.910588 9.683519 -0.170927 0.085271 -0.148238 0.000000 0.000000 0.000000 0.000000 0.000000 0.000000 0.000000 
-0.836597 17.420229 -1.171173 122.244634 -82.396176 -118.366416 -6.523766 -1.705277 2.656080 -2.028826 -1.295967 -2.397696 -6.222396 -1.356547 -0.039310 9.351233 -6.820401 -6.500730 -3.425511 -0.266652 0.205394 0.000000 0.000000 0.000000 -1.782967 5.253554 1.761354 -71.096078 -0.071276 5.533374 -3.338787 -23.044398 0.003691 5.262722 -3.725846 -0.174705 -0.081112 0.028003 -0.000000 0.000000 0.000000 0.000000 0.000000 0.000000 0.000000 14.702858 -3.591047 0.885462 71.894264 12.388224 -1.488073 2.853494 23.262587 0.010404 -1.920791 9.662827 -0.171233 0.083332 -0.148325 0.000000 0.000000 0.000000 0.000000 0.000000 0.000000 0.000000 
-0.801875 17.422231 -1.200567 120.163099 -82.135622 -116.557168 -7.112588 -1.736771 3.001351 -2.157461 -1.294927 -2.349325 -6.252314 -1.353912 -0.123995 9.524822 -6.707037 -6.433111 -3.444691 -0.268242 0.214521 0.000000 0.000000 0.000000 -1.541829 4.868096 1.803433 -71.160267 0.186689 5.718786 -3.366139 -22.783109 0.003678 5.032924 -3.587149 -0.160918 -0.079805 0.025976 -0.000000 0.000000 0.000000 0.000000 0.000000 0.000000 0.000000 14.961530 -3.484354 0.930042 71.881343 12.568808 -1.162486 2.817181 23.292118 0.010051 -1.882976 9.601687 -0.166838 0.081211 -0.148252 0.000000 0.000000 0.000000 0.000000 0.000000 0.000000 0.000000 
